<svg class="animated" id="freepik_stories-mobile-payments" xmlns="http://www.w3.org/2000/svg" viewBox="0 0 500 500" version="1.1" xmlns:xlink="http://www.w3.org/1999/xlink" xmlns:svgjs="http://svgjs.com/svgjs"><style>svg#freepik_stories-mobile-payments:not(.animated) .animable {opacity: 0;}svg#freepik_stories-mobile-payments.animated #freepik--Character--inject-31 {animation: 3s Infinite  linear floating;animation-delay: 0s;}            @keyframes floating {                0% {                    opacity: 1;                    transform: translateY(0px);                }                50% {                    transform: translateY(-10px);                }                100% {                    opacity: 1;                    transform: translateY(0px);                }            }        </style><g id="freepik--background-complete--inject-31" style="transform-origin: 250px 228.23px 0px;" class="animable"><rect y="382.4" width="500" height="0.25" style="fill: rgb(235, 235, 235); transform-origin: 250px 382.525px 0px;" id="elt1t9teb3tmi" class="animable"></rect><rect x="435" y="398.49" width="14.9" height="0.25" style="fill: rgb(235, 235, 235); transform-origin: 442.45px 398.615px 0px;" id="elpv5or397r3n" class="animable"></rect><rect x="322.53" y="401.21" width="8.69" height="0.25" style="fill: rgb(235, 235, 235); transform-origin: 326.875px 401.335px 0px;" id="el21bzufxeymt" class="animable"></rect><rect x="396.59" y="389.21" width="34.19" height="0.25" style="fill: rgb(235, 235, 235); transform-origin: 413.685px 389.335px 0px;" id="el34nvyua34wh" class="animable"></rect><rect x="66.44" y="394.37" width="43.19" height="0.25" style="fill: rgb(235, 235, 235); transform-origin: 88.035px 394.495px 0px;" id="elahcljvnoqll" class="animable"></rect><rect x="118.53" y="394.37" width="15.58" height="0.25" style="fill: rgb(235, 235, 235); transform-origin: 126.32px 394.495px 0px;" id="elnjhrj9gi0em" class="animable"></rect><rect x="161.08" y="391.01" width="93.68" height="0.25" style="fill: rgb(235, 235, 235); transform-origin: 207.92px 391.135px 0px;" id="el02jyc8cseazk" class="animable"></rect><path d="M237,337.8H43.91a5.71,5.71,0,0,1-5.7-5.71V60.66A5.71,5.71,0,0,1,43.91,55H237a5.71,5.71,0,0,1,5.71,5.71V332.09A5.71,5.71,0,0,1,237,337.8ZM43.91,55.2a5.46,5.46,0,0,0-5.45,5.46V332.09a5.46,5.46,0,0,0,5.45,5.46H237a5.47,5.47,0,0,0,5.46-5.46V60.66A5.47,5.47,0,0,0,237,55.2Z" style="fill: rgb(235, 235, 235); transform-origin: 140.461px 196.4px 0px;" id="elp8f2nqby6fq" class="animable"></path><path d="M453.31,337.8H260.21a5.72,5.72,0,0,1-5.71-5.71V60.66A5.72,5.72,0,0,1,260.21,55h193.1A5.71,5.71,0,0,1,459,60.66V332.09A5.71,5.71,0,0,1,453.31,337.8ZM260.21,55.2a5.47,5.47,0,0,0-5.46,5.46V332.09a5.47,5.47,0,0,0,5.46,5.46h193.1a5.47,5.47,0,0,0,5.46-5.46V60.66a5.47,5.47,0,0,0-5.46-5.46Z" style="fill: rgb(235, 235, 235); transform-origin: 356.75px 196.4px 0px;" id="elnj82bgzl3o" class="animable"></path><g id="elysv3i23yyc"><rect x="221.5" y="321" width="7.9" height="54.1" style="fill: rgb(240, 240, 240); transform-origin: 225.45px 348.05px 0px; transform: rotate(180deg);" class="animable"></rect></g><g id="elpz4ff4kaut"><rect x="61.7" y="375.1" width="162.48" height="7.3" style="fill: rgb(240, 240, 240); transform-origin: 142.94px 378.75px 0px; transform: rotate(180deg);" class="animable"></rect></g><rect x="56.49" y="321" width="165.01" height="54.1" style="fill: rgb(245, 245, 245); transform-origin: 138.995px 348.05px 0px;" id="eleav8p3howj" class="animable"></rect><rect x="67.16" y="330.42" width="143.66" height="30.9" style="fill: rgb(240, 240, 240); transform-origin: 138.99px 345.87px 0px;" id="elautgvfrnf6" class="animable"></rect><g id="ele7jgdaju1x4"><rect x="101.67" y="329.38" width="74.64" height="5.18" rx="2.37" style="fill: rgb(245, 245, 245); transform-origin: 138.99px 331.97px 0px; transform: rotate(180deg);" class="animable"></rect></g><g id="el90b31hwxdlk"><rect x="52.87" y="316.17" width="168.63" height="4.83" style="fill: rgb(240, 240, 240); transform-origin: 137.185px 318.585px 0px; transform: rotate(180deg);" class="animable"></rect></g><rect x="221.5" y="316.17" width="11.69" height="4.83" style="fill: rgb(230, 230, 230); transform-origin: 227.345px 318.585px 0px;" id="el5ucwdnon5jm" class="animable"></rect><g id="elvolhdmi5p2e"><rect x="215.47" y="82.65" width="211.43" height="162.15" style="fill: rgb(230, 230, 230); transform-origin: 321.185px 163.725px 0px; transform: rotate(180deg);" class="animable"></rect></g><path d="M195.68,76.35H438.86a1.83,1.83,0,0,1,1.83,1.83h0A1.83,1.83,0,0,1,438.86,80H195.68a1.83,1.83,0,0,1-1.84-1.83h0A1.83,1.83,0,0,1,195.68,76.35Z" style="fill: rgb(230, 230, 230); transform-origin: 317.266px 78.1758px 0px;" id="el8r4xxm05q8y" class="animable"></path><g id="el60534g82kyr"><rect x="207.63" y="82.65" width="215.61" height="162.15" style="fill: rgb(240, 240, 240); transform-origin: 315.435px 163.725px 0px; transform: rotate(180deg);" class="animable"></rect></g><polygon points="215.47 244.81 426.9 244.81 426.9 250 210.07 250 215.47 244.81" style="fill: rgb(230, 230, 230); transform-origin: 318.485px 247.405px 0px;" id="elfz6k4mrkcot" class="animable"></polygon><polygon points="194.57 244.81 410.18 244.81 404.78 250 189.18 250 194.57 244.81" style="fill: rgb(240, 240, 240); transform-origin: 299.68px 247.405px 0px;" id="el7f1sjpvmhj8" class="animable"></polygon><g id="el3fe04vdnts3"><rect x="245.33" y="66.9" width="140.21" height="193.66" style="fill: rgb(250, 250, 250); transform-origin: 315.435px 163.73px 0px; transform: rotate(90deg);" class="animable"></rect></g><polygon points="347.64 233.83 283.25 93.63 252.84 93.63 317.24 233.83 347.64 233.83" style="fill: rgb(255, 255, 255); transform-origin: 300.24px 163.73px 0px;" id="el3o4j1ggsc7j" class="animable"></polygon><polygon points="310.71 233.83 246.31 93.63 234.46 93.63 298.86 233.83 310.71 233.83" style="fill: rgb(255, 255, 255); transform-origin: 272.585px 163.73px 0px;" id="el4sfy5808025" class="animable"></polygon><g id="el95vet5vdqe"><rect x="149.2" y="163.03" width="140.21" height="1.39" style="fill: rgb(230, 230, 230); transform-origin: 219.305px 163.725px 0px; transform: rotate(90deg);" class="animable"></rect></g><g id="elptlxe8qlnnn"><g style="opacity: 0.4; transform-origin: 402.695px 139.975px 0px;" class="animable"><g id="elmo61rus9pdd"><rect x="412.14" y="73.07" width="18.88" height="133.81" style="fill: rgb(240, 240, 240); transform-origin: 421.58px 139.975px 0px; transform: rotate(180deg);" class="animable"></rect></g><g id="elv6ixj7h1c8q"><rect x="404.78" y="73.07" width="14.71" height="133.81" style="fill: rgb(230, 230, 230); transform-origin: 412.135px 139.975px 0px; transform: rotate(180deg);" class="animable"></rect></g><g id="eliq4vlu46t7"><rect x="393.25" y="73.07" width="18.88" height="133.81" style="fill: rgb(240, 240, 240); transform-origin: 402.69px 139.975px 0px; transform: rotate(180deg);" class="animable"></rect></g><g id="el4k41re5w0ny"><rect x="385.9" y="73.07" width="14.71" height="133.81" style="fill: rgb(230, 230, 230); transform-origin: 393.255px 139.975px 0px; transform: rotate(180deg);" class="animable"></rect></g><g id="ellteel9sh4qg"><rect x="374.37" y="73.07" width="18.88" height="133.81" style="fill: rgb(240, 240, 240); transform-origin: 383.81px 139.975px 0px; transform: rotate(180deg);" class="animable"></rect></g></g></g><g id="eld24kmkth2j"><g style="opacity: 0.4; transform-origin: 220.19px 139.975px 0px;" class="animable"><g id="elibn5wn3a6g"><rect x="225.63" y="73.07" width="10.88" height="133.81" style="fill: rgb(240, 240, 240); transform-origin: 231.07px 139.975px 0px; transform: rotate(180deg);" class="animable"></rect></g><g id="elzvjmk4lr2dl"><rect x="221.39" y="73.07" width="8.48" height="133.81" style="fill: rgb(230, 230, 230); transform-origin: 225.63px 139.975px 0px; transform: rotate(180deg);" class="animable"></rect></g><g id="el1q1eazva21dj"><rect x="214.75" y="73.07" width="10.88" height="133.81" style="fill: rgb(240, 240, 240); transform-origin: 220.19px 139.975px 0px; transform: rotate(180deg);" class="animable"></rect></g><g id="elpe0z9webq6"><rect x="210.51" y="73.07" width="8.48" height="133.81" style="fill: rgb(230, 230, 230); transform-origin: 214.75px 139.975px 0px; transform: rotate(180deg);" class="animable"></rect></g><g id="elrdc1ehsh3w"><rect x="203.87" y="73.07" width="10.88" height="133.81" style="fill: rgb(240, 240, 240); transform-origin: 209.31px 139.975px 0px; transform: rotate(180deg);" class="animable"></rect></g></g></g><rect x="70.33" y="73.15" width="86.87" height="221.96" style="fill: rgb(245, 245, 245); transform-origin: 113.765px 184.13px 0px;" id="el0amvw8inlec" class="animable"></rect><g id="elocq7jj90haf"><rect x="157.2" y="73.15" width="2.38" height="221.96" style="fill: rgb(224, 224, 224); transform-origin: 158.39px 184.13px 0px; transform: rotate(180deg);" class="animable"></rect></g><g id="elegqnqtjcc8n"><rect x="10.83" y="148.74" width="205.87" height="70.78" style="fill: rgb(255, 255, 255); transform-origin: 113.765px 184.13px 0px; transform: rotate(90deg);" class="animable"></rect></g><polygon points="103.29 287.06 126.78 81.19 140.33 81.19 116.85 287.06 103.29 287.06" style="fill: rgb(250, 250, 250); transform-origin: 121.81px 184.125px 0px;" id="elqgm5g1umigl" class="animable"></polygon><polygon points="91.55 287.06 115.03 81.19 121.81 81.19 98.33 287.06 91.55 287.06" style="fill: rgb(250, 250, 250); transform-origin: 106.68px 184.125px 0px;" id="el17y9akb9giv" class="animable"></polygon></g><g id="freepik--Shadow--inject-31" style="transform-origin: 250px 416.24px 0px;" class="animable"><ellipse id="freepik--path--inject-31" cx="250" cy="416.24" rx="193.89" ry="11.32" style="fill: rgb(245, 245, 245); transform-origin: 250px 416.24px 0px;" class="animable"></ellipse></g><g id="freepik--Device--inject-31" style="transform-origin: 347.73px 278.314px 0px;" class="animable"><path d="M398.05,416.24H281.25a11.72,11.72,0,0,1-11.81-12.64l16.3-247.07a13.74,13.74,0,0,1,13.47-12.64H416a11.72,11.72,0,0,1,11.8,12.64L411.52,403.6A13.74,13.74,0,0,1,398.05,416.24Z" style="fill: rgb(38, 50, 56); transform-origin: 348.621px 280.064px 0px;" id="elewthxpq8pdk" class="animable"></path><path d="M422.64,210.33H408.5a2.83,2.83,0,0,1-2.85-3.05l1.41-21.4a3.32,3.32,0,0,1,3.26-3h14.13a2.83,2.83,0,0,1,2.85,3l-1.41,21.4A3.31,3.31,0,0,1,422.64,210.33Z" style="fill: rgb(38, 50, 56); transform-origin: 416.473px 196.604px 0px;" id="elgejha4la4ye" class="animable"></path><rect x="324.61" y="140.39" width="5.17" height="1" style="fill: rgb(64, 123, 255); transform-origin: 327.195px 140.89px 0px;" id="elt1drc5cxmzg" class="animable"></rect><rect x="299.44" y="140.39" width="18.8" height="1" style="fill: rgb(64, 123, 255); transform-origin: 308.84px 140.89px 0px;" id="elqt2w0by4la" class="animable"></rect><path d="M396.27,416.24H279.47a11.73,11.73,0,0,1-11.81-12.64L284,156.53a13.74,13.74,0,0,1,13.47-12.64h116.8A11.72,11.72,0,0,1,426,156.53L409.74,403.6A13.74,13.74,0,0,1,396.27,416.24Z" style="fill: rgb(64, 123, 255); transform-origin: 346.83px 280.064px 0px;" id="elkxjh14oic2" class="animable"></path><path d="M401.57,387.46H278a6.66,6.66,0,0,1-6.71-7.18l14.19-215.1A7.8,7.8,0,0,1,293.1,158H416.7a6.66,6.66,0,0,1,6.71,7.18l-14.19,215.1A7.8,7.8,0,0,1,401.57,387.46Z" style="fill: rgb(255, 255, 255); transform-origin: 347.35px 272.73px 0px;" id="el6l0um4n9714" class="animable"></path><polygon points="378.52 158 353.98 158 294.53 387.46 319.07 387.46 378.52 158" style="fill: rgb(250, 250, 250); transform-origin: 336.525px 272.73px 0px;" id="elxsv1vtsxo99" class="animable"></polygon><polygon points="400.14 158 387.87 158 328.42 387.46 340.69 387.46 400.14 158" style="fill: rgb(250, 250, 250); transform-origin: 364.28px 272.73px 0px;" id="eli56afykhj7" class="animable"></polygon><path d="M383.84,316.36,357.16,215.45a10.49,10.49,0,0,0-12.8-7.45l-63.12,16.68-8.42,131.86,103.57-27.37A10.51,10.51,0,0,0,383.84,316.36Z" style="fill: rgb(240, 240, 240); transform-origin: 328.502px 282.096px 0px;" id="elrh6gdepcans" class="animable"></path><g id="eluo788swk8"><ellipse cx="339" cy="399.08" rx="8.08" ry="7.56" style="fill: rgb(255, 255, 255); opacity: 0.2; transform-origin: 339px 399.08px 0px; transform: rotate(-44.05deg);" class="animable"></ellipse></g><g id="el62jkymufjk9"><path d="M358.63,150.54a3.51,3.51,0,0,1-3.45,3.23,3,3,0,0,1-3-3.23,3.5,3.5,0,0,1,3.45-3.23A3,3,0,0,1,358.63,150.54Z" style="fill: rgb(255, 255, 255); opacity: 0.2; transform-origin: 355.404px 150.539px 0px;" class="animable"></path></g><g id="elbjuxv5sh05n"><path d="M357.17,150.54a1.92,1.92,0,0,1-1.89,1.78,1.64,1.64,0,0,1-1.66-1.78,1.92,1.92,0,0,1,1.89-1.78A1.64,1.64,0,0,1,357.17,150.54Z" style="fill: rgb(255, 255, 255); opacity: 0.2; transform-origin: 355.395px 150.541px 0px;" class="animable"></path></g></g><g id="freepik--Character--inject-31" style="transform-origin: 237.93px 266.203px 0px;" class="animable animator-active"><path d="M169.32,138.06c3.73-9.17,2.39-20.34-8.19-22.84a15.41,15.41,0,0,0-19.24,15.59c.42,10,7,18.33-4.53,25.58s-10.3,29.1,12,24.88,10.25-15.69,10.25-15.69-5.47,4.46-7.23-.08C150.15,159.62,165,148.79,169.32,138.06Z" style="fill: rgb(38, 50, 56); transform-origin: 150.693px 148.27px 0px;" id="elqoiivl6sung" class="animable"></path><path d="M130.08,168.14l-.49-.11c1.49-6.67,3.83-8.39,6.3-10.21s4.81-3.55,6.7-10.11c.89-3.09.33-6.51-.22-9.81-.7-4.21-1.42-8.57.75-12.47l.43.25c-2.08,3.74-1.37,8-.69,12.14.56,3.36,1.14,6.83.21,10-1.93,6.72-4.45,8.57-6.88,10.37S131.53,161.66,130.08,168.14Z" style="fill: rgb(38, 50, 56); transform-origin: 136.576px 146.785px 0px;" id="elgiac6m9t9e5" class="animable"></path><path d="M197.72,188.43c.07.34.19.85.3,1.31l.35,1.41c.24.95.51,1.9.79,2.85.57,1.89,1.18,3.8,1.84,5.68a120,120,0,0,0,4.52,11.13l1.26,2.63a4,4,0,0,0,.89,1.25,8.24,8.24,0,0,0,3.89,1.72,35.37,35.37,0,0,0,11.29,0l1.35,4.25a31.84,31.84,0,0,1-3.17,1.2,32.7,32.7,0,0,1-3.26.9,26.35,26.35,0,0,1-7,.65,14.88,14.88,0,0,1-7.77-2.45,11.32,11.32,0,0,1-3.22-3.42l-.16-.25-.1-.17-.2-.36-.41-.7-.81-1.42a98.41,98.41,0,0,1-5.5-11.82c-.76-2-1.51-4.09-2.12-6.2-.3-1-.6-2.11-.87-3.19s-.51-2.1-.73-3.38Z" style="fill: rgb(255, 195, 189); transform-origin: 206.539px 205.932px 0px;" id="el1yhexpafdxa" class="animable"></path><path d="M190,174.45c10.09,4.5,10,19.62,10,19.62l-10.63,6.39s-8-11.84-7.4-17.22C182.56,177.63,184.28,171.92,190,174.45Z" style="fill: rgb(64, 123, 255); transform-origin: 190.969px 187.146px 0px;" id="el2y8fb7j7pep" class="animable"></path><g id="elpe0cgiz1dhi"><path d="M191.59,187.35c-2.76-2.79-5.19.43-7.41,4a77.84,77.84,0,0,0,5.19,9.13l4.36-2.62C194.59,194.53,194.34,190.15,191.59,187.35Z" style="opacity: 0.2; transform-origin: 189.174px 193.387px 0px;" class="animable"></path></g><path d="M221.8,216.79l7.1-3.54.08,9.29s-5.3.92-8.83-2.8Z" style="fill: rgb(255, 195, 189); transform-origin: 224.564px 217.945px 0px;" id="eli2i27frpuic" class="animable"></path><polygon points="236.53 214.9 235.31 221.8 228.98 222.54 228.9 213.25 236.53 214.9" style="fill: rgb(255, 195, 189); transform-origin: 232.715px 217.895px 0px;" id="elo55539pjhe" class="animable"></polygon><polygon points="156.81 408.86 165.59 409.7 169.68 389.27 160.9 388.43 156.81 408.86" style="fill: rgb(255, 195, 189); transform-origin: 163.245px 399.065px 0px;" id="elwz8nejjeaka" class="animable"></polygon><polygon points="99.24 384.91 106.38 390.11 118.29 373.21 111.14 368.01 99.24 384.91" style="fill: rgb(255, 195, 189); transform-origin: 108.765px 379.06px 0px;" id="eltlgqs0o3xl" class="animable"></polygon><path d="M109,386.86l-5.88-8.05a.7.7,0,0,0-.91-.22l-7.05,3.74a1.43,1.43,0,0,0-.43,2.09c2.1,2.77,3.25,4,5.84,7.55,1.6,2.18,4.8,7.23,7,10.24s5.29,1,4.65-.45c-2.9-6.51-3-10.32-2.78-13.37A2.28,2.28,0,0,0,109,386.86Z" style="fill: rgb(38, 50, 56); transform-origin: 103.377px 391.139px 0px;" id="elvoxawwvbmgq" class="animable"></path><path d="M166.75,407.05H156.21a.86.86,0,0,0-.83.64L153.09,416a1.31,1.31,0,0,0,1.28,1.67c3.72,0,5.48,0,10.11,0h14.17c3.85,0,4.65-3.89,3.06-4.25-7.14-1.58-11.26-3.76-13.47-5.84A2.16,2.16,0,0,0,166.75,407.05Z" style="fill: rgb(38, 50, 56); transform-origin: 167.76px 412.361px 0px;" id="el9kgc03spwl" class="animable"></path><g id="elyugp83oq7ec"><polygon points="169.68 389.28 167.57 399.81 158.62 399.81 160.9 388.44 169.68 389.28" style="opacity: 0.2; transform-origin: 164.15px 394.125px 0px;" class="animable"></polygon></g><g id="el6qrxer2fdo5"><polygon points="111.14 368.01 118.29 373.22 112.15 381.93 105 376.72 111.14 368.01" style="opacity: 0.2; transform-origin: 111.645px 374.97px 0px;" class="animable"></polygon></g><path d="M194.16,182.42c-.62,6.75-2.86,20-9.41,45.89l-35.94-3.11c1.73-13.49,2.54-22.23-.84-47.77a6.21,6.21,0,0,1,5.78-7c2.59-.14,5.67-.23,8.76-.11a115.11,115.11,0,0,1,16.32,1.41c3.17.57,6.55,1.39,9.3,2.11A8.12,8.12,0,0,1,194.16,182.42Z" style="fill: rgb(64, 123, 255); transform-origin: 171.055px 199.285px 0px;" id="elwjahqd1rd4d" class="animable"></path><g id="elwt4vvtu34n"><path d="M148.89,184.91c.46,4,.8,7.57,1,10.77,3.31-.29,5.75-3.92,6-11.51C154.65,180.5,151.7,181.83,148.89,184.91Z" style="opacity: 0.2; transform-origin: 152.391px 188.814px 0px;" class="animable"></path></g><path d="M184.75,228.31s12.16,53.8,4,91.73c-5.43,25.4-17.52,76.71-17.52,76.71l-15.33-.39s7.32-53.85,10.39-75c5.25-36.22-7.9-95.29-7.9-95.29Z" style="fill: rgb(38, 50, 56); transform-origin: 173.732px 311.41px 0px;" id="eltr9r5mw6n" class="animable"></path><g id="elpsgook32ats"><path d="M170.73,239.18l-7.67,12.09a370.91,370.91,0,0,1,4.39,43.3C178.23,275.27,173.12,249.39,170.73,239.18Z" style="opacity: 0.2; transform-origin: 168.555px 266.875px 0px;" class="animable"></path></g><polygon points="173.43 397.55 154.49 397.07 155.59 391.25 174.91 392.16 173.43 397.55" style="fill: rgb(64, 123, 255); transform-origin: 164.7px 394.4px 0px;" id="el539o37xcvjx" class="animable"></polygon><path d="M176.89,227.74s-7.13,57.05-22.6,88.2c-12.49,25.16-38.62,65.15-38.62,65.15l-9.55-7.65s16.34-44.23,25.62-60.94c22.77-41,4.16-72.25,17.07-87.3Z" style="fill: rgb(38, 50, 56); transform-origin: 141.506px 303.145px 0px;" id="el2lv76x1n1hv" class="animable"></path><g id="elxi5yd8i1iao"><rect x="163.06" y="207.79" width="205.33" height="125.33" rx="10.48" style="fill: rgb(64, 123, 255); transform-origin: 265.725px 270.455px 0px; transform: rotate(-22.79deg);" class="animable"></rect></g><g id="elsv6y3bvp81q"><rect x="163.06" y="207.79" width="205.33" height="125.33" rx="10.48" style="opacity: 0.1; transform-origin: 265.725px 270.455px 0px; transform: rotate(-22.79deg);" class="animable"></rect></g><g id="elgi51euwopgs"><rect x="169.08" y="250" width="46.18" height="28.19" rx="5.04" style="fill: rgb(255, 255, 255); opacity: 0.2; transform-origin: 192.17px 264.095px 0px; transform: rotate(-22.79deg);" class="animable"></rect></g><g id="ela3abobiz28u"><rect x="192.8" y="316.56" width="39.15" height="10.17" rx="1.89" style="fill: rgb(255, 255, 255); opacity: 0.4; transform-origin: 212.375px 321.645px 0px; transform: rotate(-22.79deg);" class="animable"></rect></g><g id="eljjoiavkiifp"><rect x="235.22" y="298.74" width="39.15" height="10.17" rx="1.89" style="fill: rgb(255, 255, 255); opacity: 0.4; transform-origin: 254.795px 303.825px 0px; transform: rotate(-22.79deg);" class="animable"></rect></g><g id="el0751412jw6b5"><rect x="277.64" y="280.92" width="39.15" height="10.17" rx="1.89" style="fill: rgb(255, 255, 255); opacity: 0.4; transform-origin: 297.215px 286.005px 0px; transform: rotate(-22.79deg);" class="animable"></rect></g><g id="elwp5xogxs1rl"><rect x="320.06" y="263.1" width="39.15" height="10.17" rx="1.89" style="fill: rgb(255, 255, 255); opacity: 0.4; transform-origin: 339.635px 268.185px 0px; transform: rotate(-22.79deg);" class="animable"></rect></g><g id="elrqyt36hfyj"><g style="opacity: 0.6; transform-origin: 312.695px 213.465px 0px;" class="animable"><g id="elj698xztsxsc"><circle cx="321.24" cy="209.87" r="14.1" style="fill: rgb(38, 50, 56); transform-origin: 321.24px 209.87px 0px; transform: rotate(-13.27deg);" class="animable"></circle></g><g id="elhe645yhl2h6"><circle cx="304.15" cy="217.06" r="14.1" style="fill: rgb(255, 255, 255); transform-origin: 304.15px 217.06px 0px; transform: rotate(-53.14deg);" class="animable"></circle></g></g></g><polygon points="116.67 382.15 104.42 372.88 107.43 367.5 120.45 377.6 116.67 382.15" style="fill: rgb(64, 123, 255); transform-origin: 112.435px 374.825px 0px;" id="el2ucre8ih4lx" class="animable"></polygon><path d="M148.45,223.05l-1.9,3.08c-.15.23.13.52.54.55l37.7,3.26c.32,0,.6-.11.64-.31l.6-3.19c.05-.22-.22-.43-.57-.46l-36.4-3.15A.67.67,0,0,0,148.45,223.05Z" style="fill: rgb(64, 123, 255); transform-origin: 166.271px 226.381px 0px;" id="elz7dfg8c91v" class="animable"></path><g id="el1v8xihhw5pm"><path d="M148.45,223.05l-1.9,3.08c-.15.23.13.52.54.55l37.7,3.26c.32,0,.6-.11.64-.31l.6-3.19c.05-.22-.22-.43-.57-.46l-36.4-3.15A.67.67,0,0,0,148.45,223.05Z" style="opacity: 0.5; transform-origin: 166.271px 226.381px 0px;" class="animable"></path></g><path d="M153,227.54l-1-.08c-.19,0-.33-.13-.31-.25l.82-4.14c0-.13.2-.21.4-.19l1,.08c.2,0,.34.13.31.25l-.82,4.14C153.36,227.47,153.18,227.56,153,227.54Z" style="fill: rgb(64, 123, 255); transform-origin: 152.957px 225.209px 0px;" id="eli5ye6dzjwlq" class="animable"></path><path d="M182,230.05l-1-.08c-.19,0-.33-.13-.31-.25l.82-4.14a.36.36,0,0,1,.4-.19l1,.08c.2,0,.34.13.31.25l-.82,4.14C182.39,230,182.21,230.07,182,230.05Z" style="fill: rgb(64, 123, 255); transform-origin: 181.957px 227.719px 0px;" id="eldue77hfkoi" class="animable"></path><path d="M167.5,228.8l-1-.09c-.2,0-.34-.13-.31-.25l.82-4.14c0-.12.2-.21.39-.19l1,.09c.19,0,.33.13.31.25l-.82,4.14C167.87,228.73,167.7,228.81,167.5,228.8Z" style="fill: rgb(64, 123, 255); transform-origin: 167.449px 226.463px 0px;" id="elrlgi3vntzd" class="animable"></path><path d="M111.24,391.31a1,1,0,0,1-.34,0c-1.09-.22-2-2.07-2.48-3.15a.17.17,0,0,1,0-.19.15.15,0,0,1,.18,0c.34.12,3.32,1.27,3.55,2.36a.65.65,0,0,1-.22.65A1.23,1.23,0,0,1,111.24,391.31Zm-2.33-2.92c.68,1.49,1.44,2.44,2.06,2.56a.84.84,0,0,0,.76-.28.32.32,0,0,0,.12-.33C111.71,389.67,109.94,388.81,108.91,388.39Z" style="fill: rgb(64, 123, 255); transform-origin: 110.279px 389.631px 0px;" id="elgvxbb8lfbyk" class="animable"></path><path d="M111.33,388.53a6.24,6.24,0,0,1-2.82-.3.17.17,0,0,1-.1-.14.17.17,0,0,1,.07-.16c.09-.06,2.15-1.56,3.39-1.28a1.06,1.06,0,0,1,.73.53.71.71,0,0,1,0,.88A2,2,0,0,1,111.33,388.53ZM109,388c1,.29,2.87.31,3.33-.2.08-.08.15-.21,0-.47a.7.7,0,0,0-.49-.36C111,386.8,109.56,387.63,109,388Z" style="fill: rgb(64, 123, 255); transform-origin: 110.582px 387.596px 0px;" id="el4mlr6vb4t4w" class="animable"></path><path d="M171.43,408.75a14.68,14.68,0,0,1-2.88-.36.18.18,0,0,1,0-.33c.44-.21,4.26-2,5.22-1.32a.55.55,0,0,1,.25.54,1.25,1.25,0,0,1-.52,1A3.4,3.4,0,0,1,171.43,408.75Zm-2.28-.6c1.14.21,3.24.49,4.1-.16a1,1,0,0,0,.38-.73c0-.14,0-.2-.09-.23C173,406.66,170.74,407.45,169.15,408.15Z" style="fill: rgb(64, 123, 255); transform-origin: 171.232px 407.676px 0px;" id="elycye9a14d7c" class="animable"></path><path d="M168.59,408.39a.15.15,0,0,1-.11,0,.16.16,0,0,1-.06-.17c0-.17.9-3.94,3-3.7.52.07.66.32.69.53.13,1-2.28,2.9-3.44,3.37Zm2.62-3.57c-1.33,0-2.1,2.2-2.36,3.08,1.25-.66,3-2.23,2.89-2.84,0-.05,0-.19-.39-.23Z" style="fill: rgb(64, 123, 255); transform-origin: 170.264px 406.465px 0px;" id="elix09vqclex" class="animable"></path><path d="M152.79,185.09l-.53.75-.58.85c-.39.58-.78,1.17-1.15,1.78-.76,1.2-1.45,2.45-2.15,3.7a65.66,65.66,0,0,0-3.64,7.79,66.7,66.7,0,0,0-2.63,8.15l-.47,2c0-.06-.06.15.05.53a11.25,11.25,0,0,0,1.49,3,49,49,0,0,0,5.42,6.51c2,2.12,4.22,4.17,6.43,6.21s4.53,4,6.85,5.93,4.69,3.88,7,5.76l-2.5,3.69a164.4,164.4,0,0,1-15.49-10.42c-2.5-1.88-4.95-3.86-7.32-6a50.94,50.94,0,0,1-6.77-7.21,17.7,17.7,0,0,1-2.8-5.11,9.17,9.17,0,0,1-.43-4l0-.28,0-.15.05-.3.1-.61.21-1.21a65.52,65.52,0,0,1,2.48-9.49,75,75,0,0,1,3.89-9c.75-1.46,1.57-2.87,2.45-4.26.43-.7.88-1.39,1.35-2.08l.74-1c.26-.35.48-.66.83-1.09Z" style="fill: rgb(255, 195, 189); transform-origin: 151.195px 210.635px 0px;" id="eleeo81upam6g" class="animable"></path><path d="M151.9,171c-6.86,1.8-13.48,18.43-13.48,18.43l8.88,8.12s13.95-12.72,13.48-18.46C160.39,174.21,157.41,169.54,151.9,171Z" style="fill: rgb(64, 123, 255); transform-origin: 149.607px 184.139px 0px;" id="eljlfc32ciu" class="animable"></path><g id="elju81atizfia"><path d="M162.51,170a17.46,17.46,0,0,1-3.82.35c-.27,4.94,2.9,9.71,10.69,16.11,1.87-5.83,6-7.09,6-7.09Z" style="opacity: 0.2; transform-origin: 167.027px 178.23px 0px;" class="animable"></path></g><g id="elnyucweu4qtb"><path d="M178.83,171.57s.91.13,3.08.63c1.45,2.23,3.33,9.1-.94,14-1.66-6-5.62-6.76-5.62-6.76Z" style="opacity: 0.2; transform-origin: 179.475px 178.885px 0px;" class="animable"></path></g><path d="M162.51,170s-2,0-4.44,0c-1.45,2.23,3.54,8.41,11.32,14.81,1.87-5.83,6-5.48,6-5.48Z" style="fill: rgb(255, 255, 255); transform-origin: 166.605px 177.404px 0px;" id="elm0ntyez0if" class="animable"></path><path d="M178.83,171.57s.91.13,3.08.63c1.45,2.23,4.58,8.27.31,13.13-1.66-6-6.87-5.92-6.87-5.92Z" style="fill: rgb(255, 255, 255); transform-origin: 179.865px 178.449px 0px;" id="ellikel3oepo" class="animable"></path><path d="M165.72,152.05c.58,5.34.77,15-3.21,18.24,0,0,2.07,6,12.84,9.12,6.48-3.74,3.48-7.71,3.48-7.71-5.73-1.9-5.2-6.23-3.83-10.23Z" style="fill: rgb(255, 195, 189); transform-origin: 171.018px 165.73px 0px;" id="elhtihjbbhv2c" class="animable"></path><g id="el06uxbg1hrqlh"><path d="M169.5,155.9l5.5,5.57a16.7,16.7,0,0,0-.76,2.85c-2.21-.51-5.41-2.81-5.44-5.17A9.51,9.51,0,0,1,169.5,155.9Z" style="opacity: 0.2; transform-origin: 171.9px 160.109px 0px;" class="animable"></path></g><path d="M177.88,130.71c1.75-1.93,5.22.53,6.5,5.26,1.92,7-3.2,7.5-5.88,4S176.42,132.32,177.88,130.71Z" style="fill: rgb(38, 50, 56); transform-origin: 180.719px 136.07px 0px;" id="elf2ocoqsrsh" class="animable"></path><path d="M183.3,143a19.51,19.51,0,0,1,4.93,2.54C187.36,143.42,186.58,142.13,183.3,143Z" style="fill: rgb(38, 50, 56); transform-origin: 185.766px 144.133px 0px;" id="el4kgdet7gtqp" class="animable"></path><path d="M184.31,143.33a15.39,15.39,0,0,1,4.32-.24C187.21,142,186.18,141.46,184.31,143.33Z" style="fill: rgb(38, 50, 56); transform-origin: 186.469px 142.713px 0px;" id="elr8cw7qznvf" class="animable"></path><path d="M161,143.71c2.23,8.53,3,12.19,8.22,15.76,7.87,5.38,17.86.78,18.23-8.25.33-8.12-3.37-20.7-12.5-22.48A12,12,0,0,0,161,143.71Z" style="fill: rgb(255, 195, 189); transform-origin: 174.016px 145.135px 0px;" id="eligjigetzl6e" class="animable"></path><path d="M165.12,132.46l-2.47,2.87a4.28,4.28,0,0,1-6,.44h0a4.28,4.28,0,0,1-.45-6l2.47-2.86a4.29,4.29,0,0,1,6-.45h0A4.29,4.29,0,0,1,165.12,132.46Z" style="fill: rgb(255, 255, 255); transform-origin: 160.658px 131.119px 0px;" id="elqpixx4j921" class="animable"></path><path d="M167.4,135.66l-3,1.5a5.19,5.19,0,0,1-6.93-2.35h0a5.2,5.2,0,0,1,2.35-6.94l3-1.5a5.2,5.2,0,0,1,6.94,2.36h0A5.19,5.19,0,0,1,167.4,135.66Z" style="fill: rgb(64, 123, 255); transform-origin: 163.613px 131.766px 0px;" id="elutiow05x62d" class="animable"></path><path d="M163.56,150.09s6.16-1.41,3.54-10.42a2.36,2.36,0,0,1,2.22-3c6.94-.19,13.43-1.64,12.51-5.66-1.15-5.08-18.44-9-21.58,1.17C154.12,133.61,153.89,145.69,163.56,150.09Z" style="fill: rgb(38, 50, 56); transform-origin: 168.918px 137.961px 0px;" id="elg9k7jrojbe4" class="animable"></path><path d="M163.59,148.31a19.51,19.51,0,0,1,4.93,2.54C167.65,148.75,166.87,147.46,163.59,148.31Z" style="fill: rgb(38, 50, 56); transform-origin: 166.055px 149.449px 0px;" id="elyoz8kjh0lfm" class="animable"></path><path d="M164.6,148.66a15.39,15.39,0,0,1,4.32-.24C167.51,147.35,166.48,146.8,164.6,148.66Z" style="fill: rgb(38, 50, 56); transform-origin: 166.762px 148.049px 0px;" id="ellx3ubbkk58o" class="animable"></path><path d="M159.6,150.41a6.45,6.45,0,0,0,3.79,3.14c2.17.65,3.29-1.27,2.73-3.34-.51-1.86-2.25-4.43-4.44-4.18A2.9,2.9,0,0,0,159.6,150.41Z" style="fill: rgb(255, 195, 189); transform-origin: 162.721px 149.848px 0px;" id="el5ubkbnx51vv" class="animable"></path><path d="M175.46,143.42c.14.7.63,1.2,1.08,1.11s.72-.74.59-1.44-.63-1.2-1.09-1.11S175.32,142.71,175.46,143.42Z" style="fill: rgb(38, 50, 56); transform-origin: 176.293px 143.256px 0px;" id="elufrgw6ia49" class="animable"></path><path d="M183.41,141.85c.14.71.62,1.2,1.08,1.11s.72-.73.58-1.43-.62-1.2-1.08-1.11S183.27,141.15,183.41,141.85Z" style="fill: rgb(38, 50, 56); transform-origin: 184.24px 141.691px 0px;" id="el6axjbgu1jf" class="animable"></path><path d="M183.8,140.5l1.59-.82S184.78,141.17,183.8,140.5Z" style="fill: rgb(38, 50, 56); transform-origin: 184.596px 140.178px 0px;" id="el519oeuxdogt" class="animable"></path><path d="M180.68,143.61a19.14,19.14,0,0,0,3.39,4,3.08,3.08,0,0,1-2.42,1Z" style="fill: rgb(237, 132, 126); transform-origin: 182.375px 146.111px 0px;" id="elxfx6ku2r80s" class="animable"></path><path d="M178.4,151.92a5.8,5.8,0,0,1-4-1.53.18.18,0,0,1,0-.25.18.18,0,0,1,.25,0,5.7,5.7,0,0,0,5,1.29.17.17,0,0,1,.06.34A6.16,6.16,0,0,1,178.4,151.92Z" style="fill: rgb(38, 50, 56); transform-origin: 177.102px 151.006px 0px;" id="eljqxcxq8amie" class="animable"></path><path d="M170.69,140.69a.41.41,0,0,1-.18-.05.35.35,0,0,1-.12-.48,4.09,4.09,0,0,1,3.17-2,.36.36,0,0,1,.36.34.35.35,0,0,1-.34.36,3.4,3.4,0,0,0-2.59,1.71A.35.35,0,0,1,170.69,140.69Z" style="fill: rgb(38, 50, 56); transform-origin: 172.131px 139.426px 0px;" id="eli7m6lg6lzp" class="animable"></path><path d="M185.62,137.87a.33.33,0,0,1-.17,0,3.45,3.45,0,0,0-3.11-.2A.35.35,0,0,1,182,137a4.08,4.08,0,0,1,3.77.21.34.34,0,0,1,.13.47A.33.33,0,0,1,185.62,137.87Z" style="fill: rgb(38, 50, 56); transform-origin: 183.871px 137.26px 0px;" id="el5nw9ydgf5pf" class="animable"></path><path d="M165.61,236.56l8,.56L170,245.67s-6.68-2.11-6.95-7Z" style="fill: rgb(255, 195, 189); transform-origin: 168.33px 241.115px 0px;" id="elu72bzightpe" class="animable"></path><polygon points="176.68 241.96 172.81 247.8 170.01 245.67 173.64 237.12 176.68 241.96" style="fill: rgb(255, 195, 189); transform-origin: 173.345px 242.46px 0px;" id="el8vufs8qx816" class="animable"></polygon><path d="M175.85,142.06l1.59-.82S176.83,142.73,175.85,142.06Z" style="fill: rgb(38, 50, 56); transform-origin: 176.646px 141.736px 0px;" id="elfdhjann1r1q" class="animable"></path></g><defs>     <filter id="active" height="200%">         <feMorphology in="SourceAlpha" result="DILATED" operator="dilate" radius="2"></feMorphology>                <feFlood flood-color="#32DFEC" flood-opacity="1" result="PINK"></feFlood>        <feComposite in="PINK" in2="DILATED" operator="in" result="OUTLINE"></feComposite>        <feMerge>            <feMergeNode in="OUTLINE"></feMergeNode>            <feMergeNode in="SourceGraphic"></feMergeNode>        </feMerge>    </filter>    <filter id="hover" height="200%">        <feMorphology in="SourceAlpha" result="DILATED" operator="dilate" radius="2"></feMorphology>                <feFlood flood-color="#ff0000" flood-opacity="0.5" result="PINK"></feFlood>        <feComposite in="PINK" in2="DILATED" operator="in" result="OUTLINE"></feComposite>        <feMerge>            <feMergeNode in="OUTLINE"></feMergeNode>            <feMergeNode in="SourceGraphic"></feMergeNode>        </feMerge>            <feColorMatrix type="matrix" values="0   0   0   0   0                0   1   0   0   0                0   0   0   0   0                0   0   0   1   0 "></feColorMatrix>    </filter></defs></svg>